<svg xmlns="http://www.w3.org/2000/svg" version="1.1" viewBox="-5.0 -10.0 110.0 135.0">
 <g>
  <path d="m92.258 18.766c-6.0508-0.003906-11.008-4.875-11.008-10.953-0.066406-0.86328-0.67969-1.5156-1.5625-1.5625h-59.375c-0.86719 0.066406-1.5039 0.67188-1.5625 1.5625 0.015625 6.2773-5.1719 10.984-11.32 11.016-0.69141 0.14062-1.1367 0.80469-1.1797 1.4844v13.344c0 13.363 4.1328 26.156 11.949 36.992 6.0078 8.3594 14.066 15.18 23.297 19.723 1.8438 0.87109 3.2109-1.8711 1.3789-2.8047-20.223-9.7852-33.723-31.43-33.5-53.91v-10.02l3.125 2.5898c-1.8359 26.438 11.016 50.223 35.938 60.371v5.5898c0.03125 0.16797 0.054688 0.32422 0.082031 0.49219 0.29297 0.76562 1.1719 1.2812 1.9766 0.98828 25.871-8.6172 43.258-32.738 43.258-60.012v-13.344c-0.035156-0.17578-0.054687-0.35156-0.10547-0.52734-0.21484-0.58203-0.76563-0.97656-1.3867-1.0234zm-3.793 2.6016-2.793 2.3164c-4.2109-1.7344-7.6211-5.1406-9.3555-9.3555l2.3164-2.793c1.3086 4.7656 5.0664 8.5234 9.832 9.832zm-76.93 0c4.7656-1.3086 8.5234-5.0664 9.832-9.832l2.3164 2.793c-1.7344 4.2109-5.1406 7.6211-9.3555 9.3555zm38.465 62.523c-20.586-7.9961-34.375-28.109-34.375-50.234v-7.1016c4.8984-2.0508 8.8828-6.0312 10.93-10.93h40.148c0.86328 0 1.5625-0.69922 1.5625-1.5625s-0.69922-1.5625-1.5625-1.5625h-40.477l-2.5898-3.125h52.727l-3.0586 3.6914c-0.34375 0.49219-0.44531 1.1328-0.19141 1.6875 1.9297 5.293 6.0742 9.6367 11.262 11.805v7.1016c0 22.125-13.789 42.234-34.375 50.234zm40.625-50.234c0 25.199-15.609 47.559-39.062 56.316v-3.375c24.934-10.16 37.77-33.93 35.938-60.371l3.125-2.5898z"/>
  <path d="m67.434 38.633c-0.35156-0.58984-1.0508-0.875-1.7188-0.71094-0.66797 0.16797-1.1484 0.75-1.1797 1.4375-0.042968 0.82422-0.375 1.5859-1.0039 2.3086-2.793 2.9766-6.4219-1.1133-4.4609-3.8359 2.5234-4.043 0.085938-9.9766-4.6328-10.914-0.43359-0.097657-0.94922-0.15625-1.4102-0.21875-1.418-0.085938-2.2891-1.6484-1.6602-2.8789 0.88672-1.4648-0.47656-2.9844-1.9609-2.4922-5.1758 0.99219-7.6758 7.2422-4.7031 11.602 0.98438 1.4961 0.96094 3.0273-0.066406 4.2109-1.7031 2.2852-5.6641 1.1797-5.9062-1.7188 0.007812-1.3281-1.6875-2.0938-2.6484-1.1484-13.312 12.473-4.3633 35.125 13.918 35.102 11.199 0 20.312-9.1133 20.312-20.312 0-3.6797-0.99609-7.2852-2.8789-10.43zm-17.434 27.617c-9.4766 0-17.188-7.7109-17.188-17.188 0-3.8828 1.3281-7.6484 3.707-10.66 0.82031 1.3555 2.1211 2.3906 3.6719 2.8242 5.75 1.8086 10.77-5.0078 7.1328-10-1.2539-1.9023-0.95703-4.4531 0.75781-5.875 0.25391 2.3203 2.25 4.2656 4.5703 4.4453 0.35156 0.054687 0.77344 0.09375 1.0977 0.16797 2.6562 0.5 4.043 3.9922 2.6602 6.2148-3.9297 6.1797 4.1406 13.277 9.4609 7.5508 0.89844-1.1094 1.3164 4.3789 1.3164 5.3242 0 9.4766-7.7109 17.188-17.188 17.188z"/>
 </g>
<text x="0.0" y="117.5" font-size="5.0" font-weight="bold" font-family="Arbeit Regular, Helvetica, Arial-Unicode, Arial, Sans-serif" fill="#000000">Created by Joseph Joestar</text><text x="0.0" y="122.5" font-size="5.0" font-weight="bold" font-family="Arbeit Regular, Helvetica, Arial-Unicode, Arial, Sans-serif" fill="#000000">from Noun Project</text></svg>