<?xml version="1.0" encoding="UTF-8" standalone="no"?>
<!-- Created with Inkscape (http://www.inkscape.org/) -->

<svg
   xmlns:dc="http://purl.org/dc/elements/1.1/"
   xmlns:cc="http://creativecommons.org/ns#"
   xmlns:rdf="http://www.w3.org/1999/02/22-rdf-syntax-ns#"
   xmlns:svg="http://www.w3.org/2000/svg"
   xmlns="http://www.w3.org/2000/svg"
   xmlns:sodipodi="http://sodipodi.sourceforge.net/DTD/sodipodi-0.dtd"
   xmlns:inkscape="http://www.inkscape.org/namespaces/inkscape"
   width="124.98875mm"
   height="65.301231mm"
   viewBox="0 0 124.98875 65.301231"
   version="1.1"
   id="svg8372"
   inkscape:version="0.92.0 r15299"
   sodipodi:docname="play framework.svg">
  <defs
     id="defs8366" />
  <sodipodi:namedview
     id="base"
     pagecolor="#ffffff"
     bordercolor="#666666"
     borderopacity="1.0"
     inkscape:pageopacity="0.0"
     inkscape:pageshadow="2"
     inkscape:zoom="0.35"
     inkscape:cx="234.30945"
     inkscape:cy="121.51414"
     inkscape:document-units="mm"
     inkscape:current-layer="layer1"
     showgrid="false"
     fit-margin-top="0"
     fit-margin-left="0"
     fit-margin-right="0"
     fit-margin-bottom="0"
     inkscape:window-width="1280"
     inkscape:window-height="744"
     inkscape:window-x="-4"
     inkscape:window-y="-4"
     inkscape:window-maximized="1" />
  <metadata
     id="metadata8369">
    <rdf:RDF>
      <cc:Work
         rdf:about="">
        <dc:format>image/svg+xml</dc:format>
        <dc:type
           rdf:resource="http://purl.org/dc/dcmitype/StillImage" />
        <dc:title></dc:title>
      </cc:Work>
    </rdf:RDF>
  </metadata>
  <g
     inkscape:label="Layer 1"
     inkscape:groupmode="layer"
     id="layer1"
     transform="translate(49.521161,-115.68272)">
    <g
       transform="translate(-572.79597,-387.51278)"
       id="g8352">
      <path
         id="path8321"
         d="m 525.55251,507.1033 1.64042,-1.64042 c 2.51354,-2.48708 6.61458,-2.32833 8.91646,0.34396 l 22.70125,26.45833 c 1.98437,2.30188 1.95792,5.715 -0.0529,7.99042 l -22.62187,25.63813 c -2.32834,2.61937 -6.37646,2.75166 -8.86354,0.26458 l -1.64042,-1.64042 c -2.2225,-2.2225 -2.38125,-5.76791 -0.37042,-8.20208 l 13.54667,-16.24542 c 1.85208,-2.2225 1.87854,-5.42396 0.0794,-7.69937 l -13.75833,-17.19792 c -1.95792,-2.38125 -1.77271,-5.87375 0.42333,-8.06979 z"
         inkscape:connector-curvature="0"
         style="fill:#92d13d;stroke-width:0.26458332" />
      <path
         id="path8323"
         d="m 538.78168,540.1233 -13.54667,16.24542 c -2.01083,2.4077 -1.85208,5.97958 0.37042,8.20208 l 1.64042,1.64042 c 2.48708,2.48708 6.53521,2.35479 8.86354,-0.26459 l 4.89479,-5.55625 c 1.85208,-3.65125 2.88396,-7.77875 2.88396,-12.14437 0,-5.3975 -1.5875,-10.39813 -4.28625,-14.605 1.00542,2.06375 0.74083,4.63021 -0.82021,6.48229 z"
         inkscape:connector-curvature="0"
         style="fill:#49691f;stroke-width:0.26458332" />
      <path
         inkscape:connector-curvature="0"
         d="m 570.45231,555.54851 h -5.26521 v -30.61229 h 5.26521 v 3.20145 c 0.74083,-2.14312 3.41312,-3.6777 7.06437,-3.6777 3.12208,0 5.74146,1.11125 7.85813,3.33375 2.14312,2.19604 3.20145,4.92125 3.20145,8.20208 0,3.28083 -1.05833,6.00604 -3.20145,8.255 -2.11667,2.19604 -4.73605,3.28083 -7.85813,3.28083 -3.65125,0 -6.32354,-1.53458 -7.06437,-3.67771 z m 1.53458,-24.36813 c -1.27,1.27 -1.93146,2.91042 -1.93146,4.84188 0,1.93146 0.66146,3.54541 1.93146,4.84187 1.32292,1.27 2.93687,1.93146 4.84187,1.93146 1.905,0 3.41313,-0.66146 4.65667,-1.93146 1.27,-1.27 1.87854,-2.91041 1.87854,-4.84187 0,-1.93146 -0.60854,-3.54542 -1.87854,-4.84188 -1.21708,-1.27 -2.77812,-1.93146 -4.65667,-1.93146 -1.87854,0 -3.51895,0.66146 -4.84187,1.93146 z m 18.415,-14.71083 h 5.26521 v 23.36271 c 0,2.14312 0.71437,3.06916 2.64583,3.06916 0.60854,0 1.13771,-0.0529 1.5875,-0.1852 v 4.70958 c -0.60854,0.18521 -1.45521,0.26458 -2.51354,0.26458 -4.65667,0 -6.985,-2.38125 -6.985,-7.17021 z m 27.33146,11.66812 v -3.20145 h 5.26521 v 15.45166 c 0,1.87854 0.44979,2.59292 1.61395,2.59292 0.3175,0 0.71438,-0.0529 1.11125,-0.0794 v 4.2598 c -0.58208,0.21166 -1.4552,0.34395 -2.59291,0.34395 -1.27,0 -2.27542,-0.21166 -3.06917,-0.71437 -0.97896,-0.66146 -1.5875,-1.53458 -1.79917,-2.67229 -1.53458,2.32833 -4.07458,3.46604 -7.59354,3.46604 -3.12208,0 -5.74146,-1.08479 -7.91104,-3.33375 -2.11667,-2.24896 -3.175,-4.97417 -3.175,-8.255 0,-3.28083 1.05833,-6.00604 3.175,-8.20208 2.14313,-2.24896 4.78896,-3.33375 7.91104,-3.33375 3.54542,0 6.21771,1.5875 7.06438,3.6777 z m -1.5875,12.7 c 1.32291,-1.27 1.98437,-2.91041 1.98437,-4.84187 0,-1.93146 -0.66146,-3.54542 -1.98437,-4.84188 -1.27,-1.27 -2.91042,-1.93145 -4.78896,-1.93145 -1.87854,0 -3.41313,0.66145 -4.70958,1.93145 -1.21709,1.27 -1.85209,2.91042 -1.85209,4.84188 0,1.93146 0.60854,3.54542 1.85209,4.84187 1.27,1.27 2.80458,1.93146 4.70958,1.93146 1.905,0 3.51896,-0.66146 4.78896,-1.93146 z m 11.40354,10.66271 c 0.66146,0.21167 1.48167,0.34396 2.46062,0.34396 0.84667,0 1.45521,-0.18521 1.93146,-0.47625 0.47625,-0.29104 0.92604,-0.97896 1.27,-1.87854 l 0.58209,-1.5875 -9.26042,-22.96583 h 5.29167 l 6.50875,16.6952 6.11187,-16.6952 h 5.31813 l -9.92188,25.74395 c -0.66146,1.7198 -1.45521,3.04271 -2.38125,3.9423 -1.32292,1.21708 -3.06917,1.85208 -5.31812,1.85208 -0.97896,0 -1.85209,-0.13229 -2.59292,-0.34396 z"
         id="path8325"
         style="fill:#49691f;stroke-width:0.26458332" />
    </g>
  </g>
</svg>
